<svg width="606" height="227" viewBox="0 0 606 227" fill="none" xmlns="http://www.w3.org/2000/svg">
<path d="M34.8 190.8C14.4 190.8 0.799988 178 0.799988 159.8C0.799988 137.8 16.6 125 48.2 125H69.6V117.2C69.6 108 63.2 100 51.6 100C39.8 100 33.6 106.6 33.6 114.6H8.59999C8.59999 93.8 25.4 80.2 51.8 80.2C79.8 80.2 94 96 94 119.2V189H71V183.2C71 178.4 71.4 173.8 72 169.2L71 169C65.6 182.4 51.6 190.8 34.8 190.8ZM25.4 158C25.4 166.2 31.2 171.4 40.6 171.4C56.4 171.4 69.6 159.2 69.6 145.2V143.4H46.6C32.2 143.4 25.4 148.6 25.4 158ZM117.305 189V82H142.105V189H117.305ZM166.133 189V82H189.333V87.6C189.133 93.6 188.933 99.4 188.333 105.6H189.333C193.533 90.4 203.733 80.2 222.333 80.2C238.333 80.2 248.133 90.2 251.533 103.2C256.133 89.4 265.933 80.2 283.733 80.2C304.133 80.2 314.933 96 314.933 114V189H290.133V121C290.133 108.8 283.333 101 272.733 101C261.333 101 252.933 110.6 252.933 125.6V189H228.133V121C228.133 108.8 221.533 101 210.933 101C199.533 101 190.933 110.6 190.933 126.6V189H166.133ZM338.203 226.6V82H362.203V110.4C366.803 92.4 382.403 80.2 400.803 80.2C427.003 80.2 446.803 103.8 446.803 135.6C446.803 167.6 426.603 190.8 399.603 190.8C382.403 190.8 369.603 181.6 363.003 166.2H362.003C362.603 171.8 363.003 177.2 363.003 182.8V226.6H338.203ZM392.403 170.2C409.403 170.2 421.403 156.2 421.403 136C421.403 115.6 409.403 101.6 392.403 101.6C375.203 101.6 363.403 115.6 363.403 136C363.403 156.2 375.203 170.2 392.403 170.2ZM465.938 189V33H490.738V189H465.938ZM520.366 226.6V205.6H553.566C573.166 205.6 580.966 197.2 580.966 182.8V181.2C581.166 175.8 581.566 170.8 582.166 165.4L581.166 165.2C575.766 180.8 564.566 188.8 547.566 188.8C527.766 188.8 513.966 175.6 513.966 155V82H538.766V146.4C538.766 160 545.366 168.4 557.766 168.4C570.966 168.4 580.966 158 580.966 142.6V82H605.766V184C605.766 208.2 586.766 226.6 555.566 226.6H520.366Z" fill="#333333"/>
<path d="M188.763 4.95538C188.197 4.18798 187.413 3.60554 186.51 3.28295C185.608 2.96037 184.628 2.91241 183.698 3.14523L108.582 22.0814C107.727 22.31 106.951 22.7665 106.339 23.4013C105.727 24.036 105.303 24.8247 105.113 25.6815C104.923 26.5382 104.974 27.4301 105.26 28.2602C105.547 29.0903 106.058 29.8267 106.738 30.3892L122.808 43.2916L128.108 76.6927C128.158 76.9934 128.297 77.2728 128.506 77.4968C128.715 77.7207 128.985 77.8794 129.284 77.9533C129.583 78.0272 129.897 78.0132 130.188 77.9129C130.479 77.8126 130.734 77.6305 130.922 77.3888L146.085 61.9491L158.216 71.6803C158.807 72.1479 159.499 72.4722 160.239 72.6271C160.979 72.7819 161.745 72.7631 162.476 72.5721C163.207 72.3811 163.883 72.0232 164.449 71.5271C165.015 71.031 165.456 70.4106 165.736 69.7155L189.373 9.48828C189.668 8.74369 189.768 7.93677 189.661 7.14367C189.554 6.35058 189.245 5.59746 188.763 4.95538ZM136.409 51.6768C136.147 51.8763 135.947 52.1442 135.83 52.4503L130.187 69.8083L125.966 43.2608C125.939 43.2312 176.538 13.8666 176.538 13.851L136.409 51.6768Z" fill="#333333"/>
</svg>
