<svg width="85" height="75" viewBox="0 0 85 75" fill="none" xmlns="http://www.w3.org/2000/svg">
<path d="M83.7629 1.95538C83.1975 1.18798 82.413 0.605536 81.5104 0.282954C80.6078 -0.0396268 79.6282 -0.0875912 78.6979 0.145231L3.58233 19.0814C2.72659 19.31 1.95061 19.7665 1.33888 20.4013C0.727138 21.036 0.303082 21.8247 0.112872 22.6815C-0.0773383 23.5382 -0.0264119 24.4301 0.260106 25.2602C0.546624 26.0903 1.05775 26.8267 1.73785 27.3892L17.8081 40.2916L23.1077 73.6927C23.1584 73.9934 23.2968 74.2728 23.5058 74.4968C23.7148 74.7207 23.9853 74.8794 24.2841 74.9533C24.583 75.0272 24.8971 75.0132 25.188 74.9129C25.4788 74.8126 25.7338 74.6305 25.9216 74.3888L41.0854 58.9491L53.2164 68.6803C53.8067 69.1479 54.4995 69.4722 55.2392 69.6271C55.9789 69.7819 56.7451 69.7631 57.4761 69.5721C58.2072 69.3811 58.8828 69.0232 59.4489 68.5271C60.015 68.031 60.4557 67.4106 60.7358 66.7155L84.3726 6.48828C84.6684 5.74369 84.7677 4.93677 84.661 4.14367C84.5544 3.35058 84.2452 2.59746 83.7629 1.95538ZM31.4087 48.6768C31.1468 48.8763 30.9465 49.1442 30.8303 49.4503L25.1869 66.8083L20.966 40.2608C20.939 40.2312 71.538 10.8666 71.538 10.851L31.4087 48.6768Z" fill="#333333"/>
</svg>
