<svg width="397" height="397" viewBox="0 0 397 397" fill="none" xmlns="http://www.w3.org/2000/svg">
<circle cx="198.5" cy="198.5" r="196" fill="white" stroke="black" stroke-width="5"/>
<path d="M392.147 45.5723L323.573 47.0003L325.001 115.575" stroke="black" stroke-width="5"/>
<path d="M89.5 235L80.9 212.9H52.6L44.1 235H35L62.9 163.3H71L98.8 235H89.5ZM70.2 183.3C70 182.767 69.6667 181.8 69.2 180.4C68.7333 179 68.2667 177.567 67.8 176.1C67.4 174.567 67.0667 173.4 66.8 172.6C66.4667 173.933 66.1 175.3 65.7 176.7C65.3667 178.033 65 179.267 64.6 180.4C64.2667 181.533 63.9667 182.5 63.7 183.3L55.6 204.9H78.2L70.2 183.3ZM116.167 181.4V235H107.367V181.4H116.167ZM111.867 161.3C113.201 161.3 114.367 161.767 115.367 162.7C116.434 163.567 116.967 164.967 116.967 166.9C116.967 168.767 116.434 170.167 115.367 171.1C114.367 172.033 113.201 172.5 111.867 172.5C110.401 172.5 109.167 172.033 108.167 171.1C107.167 170.167 106.667 168.767 106.667 166.9C106.667 164.967 107.167 163.567 108.167 162.7C109.167 161.767 110.401 161.3 111.867 161.3ZM191.948 180.4C198.015 180.4 202.548 181.967 205.548 185.1C208.548 188.167 210.048 193.167 210.048 200.1V235H201.348V200.5C201.348 196.3 200.448 193.133 198.648 191C196.915 188.867 194.182 187.8 190.448 187.8C185.248 187.8 181.515 189.3 179.248 192.3C177.048 195.3 175.948 199.667 175.948 205.4V235H167.248V200.5C167.248 197.7 166.848 195.367 166.048 193.5C165.248 191.567 164.048 190.133 162.448 189.2C160.848 188.267 158.782 187.8 156.248 187.8C152.648 187.8 149.815 188.567 147.748 190.1C145.682 191.567 144.182 193.733 143.248 196.6C142.382 199.467 141.948 203 141.948 207.2V235H133.148V181.4H140.248L141.548 188.7H142.048C143.182 186.833 144.548 185.3 146.148 184.1C147.815 182.833 149.648 181.9 151.648 181.3C153.648 180.7 155.715 180.4 157.848 180.4C161.982 180.4 165.415 181.133 168.148 182.6C170.948 184.067 172.982 186.333 174.248 189.4H174.748C176.548 186.333 178.982 184.067 182.048 182.6C185.182 181.133 188.482 180.4 191.948 180.4ZM252.105 180.4C258.705 180.4 264.005 182.7 268.005 187.3C272.072 191.9 274.105 198.833 274.105 208.1C274.105 214.167 273.172 219.3 271.305 223.5C269.505 227.633 266.939 230.767 263.605 232.9C260.339 234.967 256.472 236 252.005 236C249.272 236 246.839 235.633 244.705 234.9C242.572 234.167 240.739 233.233 239.205 232.1C237.739 230.9 236.472 229.6 235.405 228.2H234.805C234.939 229.333 235.072 230.767 235.205 232.5C235.339 234.233 235.405 235.733 235.405 237V259H226.605V181.4H233.805L235.005 188.7H235.405C236.472 187.167 237.739 185.767 239.205 184.5C240.739 183.233 242.539 182.233 244.605 181.5C246.739 180.767 249.239 180.4 252.105 180.4ZM250.505 187.8C246.905 187.8 244.005 188.5 241.805 189.9C239.605 191.233 238.005 193.267 237.005 196C236.005 198.733 235.472 202.2 235.405 206.4V208.1C235.405 212.5 235.872 216.233 236.805 219.3C237.739 222.367 239.305 224.7 241.505 226.3C243.772 227.9 246.839 228.7 250.705 228.7C253.972 228.7 256.639 227.8 258.705 226C260.839 224.2 262.405 221.767 263.405 218.7C264.472 215.567 265.005 212 265.005 208C265.005 201.867 263.805 196.967 261.405 193.3C259.072 189.633 255.439 187.8 250.505 187.8ZM296.929 235H288.129V159H296.929V235ZM305.51 181.4H314.91L326.51 211.9C327.177 213.7 327.777 215.433 328.31 217.1C328.91 218.767 329.443 220.4 329.91 222C330.377 223.533 330.743 225.033 331.01 226.5H331.41C331.81 224.833 332.443 222.667 333.31 220C334.177 217.267 335.077 214.533 336.01 211.8L346.91 181.4H356.41L333.31 242.4C332.043 245.733 330.543 248.633 328.81 251.1C327.143 253.633 325.077 255.567 322.61 256.9C320.21 258.3 317.277 259 313.81 259C312.21 259 310.81 258.9 309.61 258.7C308.41 258.567 307.377 258.4 306.51 258.2V251.2C307.243 251.333 308.11 251.467 309.11 251.6C310.177 251.733 311.277 251.8 312.41 251.8C314.477 251.8 316.243 251.4 317.71 250.6C319.243 249.867 320.543 248.767 321.61 247.3C322.677 245.9 323.577 244.233 324.31 242.3L327.11 235.2L305.51 181.4Z" fill="black"/>
</svg>
