<svg width="449" height="178" viewBox="0 0 449 178" fill="none" xmlns="http://www.w3.org/2000/svg">
<circle cx="60.5" cy="88.5" r="58" fill="white" stroke="black" stroke-width="5"/>
<path d="M119.521 41.8906L98.62 42.3259L99.0552 63.2264" stroke="black" stroke-width="5"/>
<path d="M138.3 72.4V126H129.5V72.4H138.3ZM134 52.3C135.333 52.3 136.5 52.7667 137.5 53.7C138.567 54.5667 139.1 55.9667 139.1 57.9C139.1 59.7667 138.567 61.1667 137.5 62.1C136.5 63.0333 135.333 63.5 134 63.5C132.533 63.5 131.3 63.0333 130.3 62.1C129.3 61.1667 128.8 59.7667 128.8 57.9C128.8 55.9667 129.3 54.5667 130.3 53.7C131.3 52.7667 132.533 52.3 134 52.3ZM214.081 71.4C220.148 71.4 224.681 72.9667 227.681 76.1C230.681 79.1667 232.181 84.1667 232.181 91.1V126H223.481V91.5C223.481 87.3 222.581 84.1333 220.781 82C219.048 79.8667 216.315 78.8 212.581 78.8C207.381 78.8 203.648 80.3 201.381 83.3C199.181 86.3 198.081 90.6667 198.081 96.4V126H189.381V91.5C189.381 88.7 188.981 86.3667 188.181 84.5C187.381 82.5667 186.181 81.1333 184.581 80.2C182.981 79.2667 180.915 78.8 178.381 78.8C174.781 78.8 171.948 79.5667 169.881 81.1C167.815 82.5667 166.315 84.7333 165.381 87.6C164.515 90.4667 164.081 94 164.081 98.2V126H155.281V72.4H162.381L163.681 79.7H164.181C165.315 77.8333 166.681 76.3 168.281 75.1C169.948 73.8333 171.781 72.9 173.781 72.3C175.781 71.7 177.848 71.4 179.981 71.4C184.115 71.4 187.548 72.1333 190.281 73.6C193.081 75.0667 195.115 77.3333 196.381 80.4H196.881C198.681 77.3333 201.115 75.0667 204.181 73.6C207.315 72.1333 210.615 71.4 214.081 71.4ZM274.238 71.4C280.838 71.4 286.138 73.7 290.138 78.3C294.205 82.9 296.238 89.8333 296.238 99.1C296.238 105.167 295.305 110.3 293.438 114.5C291.638 118.633 289.072 121.767 285.738 123.9C282.472 125.967 278.605 127 274.138 127C271.405 127 268.972 126.633 266.838 125.9C264.705 125.167 262.872 124.233 261.338 123.1C259.872 121.9 258.605 120.6 257.538 119.2H256.938C257.072 120.333 257.205 121.767 257.338 123.5C257.472 125.233 257.538 126.733 257.538 128V150H248.738V72.4H255.938L257.138 79.7H257.538C258.605 78.1667 259.872 76.7667 261.338 75.5C262.872 74.2333 264.672 73.2333 266.738 72.5C268.872 71.7667 271.372 71.4 274.238 71.4ZM272.638 78.8C269.038 78.8 266.138 79.5 263.938 80.9C261.738 82.2333 260.138 84.2667 259.138 87C258.138 89.7333 257.605 93.2 257.538 97.4V99.1C257.538 103.5 258.005 107.233 258.938 110.3C259.872 113.367 261.438 115.7 263.638 117.3C265.905 118.9 268.972 119.7 272.838 119.7C276.105 119.7 278.772 118.8 280.838 117C282.972 115.2 284.538 112.767 285.538 109.7C286.605 106.567 287.138 103 287.138 99C287.138 92.8667 285.938 87.9667 283.538 84.3C281.205 80.6333 277.572 78.8 272.638 78.8ZM319.062 126H310.262V50H319.062V126ZM327.643 72.4H337.043L348.643 102.9C349.31 104.7 349.91 106.433 350.443 108.1C351.043 109.767 351.576 111.4 352.043 113C352.51 114.533 352.876 116.033 353.143 117.5H353.543C353.943 115.833 354.576 113.667 355.443 111C356.31 108.267 357.21 105.533 358.143 102.8L369.043 72.4H378.543L355.443 133.4C354.176 136.733 352.676 139.633 350.943 142.1C349.276 144.633 347.21 146.567 344.743 147.9C342.343 149.3 339.41 150 335.943 150C334.343 150 332.943 149.9 331.743 149.7C330.543 149.567 329.51 149.4 328.643 149.2V142.2C329.376 142.333 330.243 142.467 331.243 142.6C332.31 142.733 333.41 142.8 334.543 142.8C336.61 142.8 338.376 142.4 339.843 141.6C341.376 140.867 342.676 139.767 343.743 138.3C344.81 136.9 345.71 135.233 346.443 133.3L349.243 126.2L327.643 72.4Z" fill="black"/>
<path d="M83.5 122L74.9 99.9H46.6L38.1 122H29L56.9 50.3H65L92.8 122H83.5ZM64.2 70.3C64 69.7667 63.6667 68.8 63.2 67.4C62.7333 66 62.2667 64.5667 61.8 63.1C61.4 61.5667 61.0667 60.4 60.8 59.6C60.4667 60.9333 60.1 62.3 59.7 63.7C59.3667 65.0333 59 66.2667 58.6 67.4C58.2667 68.5333 57.9667 69.5 57.7 70.3L49.6 91.9H72.2L64.2 70.3Z" fill="black"/>
</svg>
