<svg width="121" height="178" viewBox="0 0 121 178" fill="none" xmlns="http://www.w3.org/2000/svg">
<circle cx="60.5" cy="88.5" r="58" fill="white" stroke="black" stroke-width="5"/>
<path d="M119.521 41.8906L98.62 42.3259L99.0552 63.2264" stroke="black" stroke-width="5"/>
<path d="M83.5 122L74.9 99.9H46.6L38.1 122H29L56.9 50.3H65L92.8 122H83.5ZM64.2 70.3C64 69.7667 63.6667 68.8 63.2 67.4C62.7333 66 62.2667 64.5667 61.8 63.1C61.4 61.5667 61.0667 60.4 60.8 59.6C60.4667 60.9333 60.1 62.3 59.7 63.7C59.3667 65.0333 59 66.2667 58.6 67.4C58.2667 68.5333 57.9667 69.5 57.7 70.3L49.6 91.9H72.2L64.2 70.3Z" fill="black"/>
</svg>
