<svg width="77" height="59" viewBox="0 0 77 59" fill="none" xmlns="http://www.w3.org/2000/svg">
<path d="M1.631 25.1704C3.049 26.0364 4.944 27.8854 6.516 29.3764C9.293 32.0124 15.286 38.0724 15.59 38.3814C15.457 40.0884 13.994 53.4104 14.203 52.1524C13.785 54.6834 16.432 56.3204 18.445 54.6234C17.623 55.3164 25.115 49.8834 26.107 49.1354C29.045 52.1494 31.986 55.1624 34.947 58.1534C36.013 59.2314 37.683 58.8854 38.474 57.6984C50.633 39.4734 62.737 21.1394 75.692 3.46937C76.921 1.79337 74.893 -0.439634 73.085 0.0753657C61.39 3.41337 49.772 7.01337 38.128 10.5204C32.622 12.1804 27.161 13.9944 21.651 15.6504C16.653 17.1524 11.731 18.9204 6.704 20.3234C6.194 19.9204 5.675 19.5314 5.141 19.1674C1.467 16.6544 -2.212 22.8234 1.631 25.1704ZM18.897 47.6704C18.78 46.5574 18.243 42.1624 18.084 40.9224C19.504 42.3694 20.922 43.8184 22.336 45.2704C21.227 46.1054 20.051 46.8774 18.897 47.6704ZM36.352 52.9824C31.067 47.0314 25.834 41.0334 20.551 35.0784C29.401 31.1974 59.201 13.3074 65.819 9.55837C60.932 16.5824 41.524 45.7014 36.352 52.9824ZM55.729 10.1904C51.942 12.5104 48.172 14.8564 44.399 17.1984C40.014 19.9194 22.618 30.1174 18.432 32.6894C18.393 32.6444 18.352 32.5994 18.313 32.5544C15.237 29.1084 12.145 25.1594 8.61 21.9424C13.102 21.0614 50.282 11.8214 55.729 10.1904Z" fill="black"/>
</svg>
