<svg width="1839" height="600" viewBox="0 0 1839 600" fill="none" xmlns="http://www.w3.org/2000/svg">
<rect width="1839" height="600" fill="white"/>
<path d="M30 544V182.5H90V253.5C101.5 208.5 140.5 178 186.5 178C252 178 301.5 237 301.5 316.5C301.5 396.5 251 454.5 183.5 454.5C140.5 454.5 108.5 431.5 92 393H89.5C91 407 92 420.5 92 434.5V544H30ZM165.5 403C208 403 238 368 238 317.5C238 266.5 208 231.5 165.5 231.5C122.5 231.5 93 266.5 93 317.5C93 368 122.5 403 165.5 403ZM472.836 454.5C394.336 454.5 337.336 396.5 337.336 316.5C337.336 236.5 394.336 178 472.836 178C551.336 178 608.336 236.5 608.336 316.5C608.336 396.5 551.336 454.5 472.836 454.5ZM472.836 401.5C515.336 401.5 545.836 366.5 545.836 316.5C545.836 266 515.336 231.5 472.836 231.5C430.336 231.5 399.836 266 399.836 316.5C399.836 366.5 430.336 401.5 472.836 401.5ZM731.898 450C693.398 450 663.398 434.5 663.398 382.5V233.5H627.898V182.5H663.398V113L725.398 94.5V182.5H778.898V233.5H725.398V368.5C725.398 392 732.898 397.5 751.398 397.5H776.898V450H731.898ZM832.734 450V182.5H894.734V450H832.734ZM863.734 145.5C842.234 145.5 826.234 129.5 826.234 108C826.234 86 842.234 70 863.734 70C885.234 70 901.734 86 901.734 108C901.734 129.5 885.234 145.5 863.734 145.5ZM1078.3 454.5C999.805 454.5 942.805 396.5 942.805 316.5C942.805 236.5 999.805 178 1078.3 178C1156.8 178 1213.8 236.5 1213.8 316.5C1213.8 396.5 1156.8 454.5 1078.3 454.5ZM1078.3 401.5C1120.8 401.5 1151.3 366.5 1151.3 316.5C1151.3 266 1120.8 231.5 1078.3 231.5C1035.8 231.5 1005.3 266 1005.3 316.5C1005.3 366.5 1035.8 401.5 1078.3 401.5ZM1261.93 450V182.5H1319.93V197C1319.43 212 1318.93 227 1317.43 242L1319.93 242.5C1331.43 201.5 1362.43 178 1404.93 178C1454.93 178 1486.43 213.5 1486.43 263.5V450H1424.43V284C1424.43 250.5 1407.93 230 1379.43 230C1348.43 230 1323.93 255 1323.93 293V450H1261.93ZM1649.14 454.5C1586.64 454.5 1538.14 425 1534.64 362H1596.64C1598.64 391 1621.64 407 1651.14 407C1678.14 407 1692.64 395 1692.64 376.5C1692.64 360.5 1683.64 352 1659.14 346L1618.14 335C1570.14 322 1546.14 292.5 1546.14 255.5C1546.14 209.5 1583.64 178 1644.64 178C1698.64 178 1744.64 207 1743.14 256H1683.64C1682.14 241 1669.14 226.5 1644.64 226.5C1620.64 226.5 1606.14 237 1606.14 252.5C1606.14 268 1617.64 276 1641.64 283L1682.64 294C1730.64 307.5 1752.64 331.5 1752.64 370C1752.64 423 1712.64 454.5 1649.14 454.5Z" fill="#333333"/>
<rect x="806" y="34" width="338" height="117" fill="white"/>
<path d="M984.003 17.1553C982.801 15.5246 981.134 14.2868 979.216 13.6013C977.298 12.9158 975.217 12.8139 973.239 13.3086L813.613 53.5496C811.794 54.0353 810.145 55.0055 808.845 56.3544C807.545 57.7033 806.644 59.3793 806.24 61.1999C805.836 63.0206 805.944 64.916 806.553 66.68C807.162 68.444 808.248 70.0089 809.693 71.2043L843.844 98.6229L855.106 169.603C855.214 170.242 855.508 170.836 855.952 171.312C856.396 171.788 856.971 172.125 857.606 172.282C858.241 172.439 858.908 172.409 859.526 172.196C860.145 171.983 860.686 171.596 861.085 171.082L893.31 138.272L919.089 158.951C920.344 159.945 921.816 160.634 923.388 160.963C924.96 161.292 926.588 161.252 928.141 160.846C929.695 160.44 931.131 159.68 932.334 158.626C933.537 157.572 934.473 156.253 935.068 154.776L985.299 26.7881C985.927 25.2058 986.138 23.491 985.912 21.8056C985.685 20.1202 985.028 18.5198 984.003 17.1553ZM872.746 116.442C872.19 116.866 871.764 117.435 871.517 118.086L859.524 154.973L850.554 98.5574C850.497 98.4945 958.024 36.0924 958.024 36.0592L872.746 116.442Z" fill="#333333"/>
</svg>
